<?xml version="1.0" encoding="UTF-8" standalone="no"?>
<svg
   width="32"
   height="32"
   viewBox="0 0 32 32"
   version="1.1"
   id="svg2787"
   sodipodi:docname="close-prelight.svg.svg"
   inkscape:version="1.2 (dc2aedaf03, 2022-05-15)"
   xmlns:inkscape="http://www.inkscape.org/namespaces/inkscape"
   xmlns:sodipodi="http://sodipodi.sourceforge.net/DTD/sodipodi-0.dtd"
   xmlns="http://www.w3.org/2000/svg"
   xmlns:svg="http://www.w3.org/2000/svg">
  <defs
     id="defs2791" />
  <sodipodi:namedview
     id="namedview2789"
     pagecolor="#ffffff"
     bordercolor="#000000"
     borderopacity="0.25"
     inkscape:showpageshadow="2"
     inkscape:pageopacity="0.0"
     inkscape:pagecheckerboard="0"
     inkscape:deskcolor="#d1d1d1"
     showgrid="false"
     inkscape:zoom="11.313709"
     inkscape:cx="31.775611"
     inkscape:cy="19.754796"
     inkscape:window-width="1440"
     inkscape:window-height="841"
     inkscape:window-x="0"
     inkscape:window-y="0"
     inkscape:window-maximized="1"
     inkscape:current-layer="g3495" />
  <path
     id="rect2777"
     style="fill:#09090a"
     d="M 0,0 H 26.522375 C 29.556979,0 32,2.4430207 32,5.4776249 V 32 c 0,0 -2.443021,0 -5.477625,0 H 5.4776249 C 2.4430207,32 0,32 0,32 V 5.4776249 C 0,2.4430207 0,0 0,0 Z"
     sodipodi:nodetypes="csscsscsc" />
  <rect
     width="32"
     height="1"
     fill="#a5a5a5"
     fill-opacity="0.1"
     id="rect2779" />
  <g
     fill="#a5a5a5"
     id="g3495">
    <g
       fill="#a5a5a5"
       id="g3362">
      <circle
         cx="16"
         cy="16"
         r="12"
         opacity="0.08"
         id="circle3358" />
      <path
         d="M 21,12.41 19.59,11 16,14.59 12.41,11 11,12.41 14.59,16 11,19.59 12.41,21 16,17.41 19.59,21 21,19.59 17.41,16 Z"
         id="path3360" />
    </g>
  </g>
</svg>
